<svg id="brand" width="420" height="216" viewBox="0 0 420 216" fill="none" xmlns="http://www.w3.org/2000/svg">
<path d="M37.656 110.232C37.5707 110.147 37.4853 109.421 37.4 108.056C37.4 106.605 37.4 104.899 37.4 102.936C37.4 100.973 37.4 98.968 37.4 96.92C37.4853 94.872 37.5707 93.208 37.656 91.928C37.912 86.9787 38.4667 82.2 39.32 77.592C40.1733 72.984 41.24 68.4613 42.52 64.024C43.8 59.5013 45.208 55.0213 46.744 50.584C48.3653 46.1467 50.072 41.6667 51.864 37.144C54.7653 36.376 57.3253 36.7173 59.544 38.168C61.7627 39.6187 63.6827 41.6667 65.304 44.312C66.9253 46.9573 68.2907 50.0293 69.4 53.528C70.5947 57.0267 71.5333 60.4827 72.216 63.896C72.8987 67.3093 73.368 70.4667 73.624 73.368C73.9653 76.184 74.1787 78.3173 74.264 79.768C74.264 81.6453 74.264 84.632 74.264 88.728C74.3493 92.7387 74.392 97.304 74.392 102.424C74.392 107.459 74.392 112.792 74.392 118.424C74.392 123.971 74.392 129.304 74.392 134.424C74.392 139.459 74.3493 144.024 74.264 148.12C74.264 152.131 74.264 155.075 74.264 156.952C74.264 157.293 74.008 157.72 73.496 158.232C72.984 158.744 72.5573 159 72.216 159C71.7893 159.085 71.0213 159.128 69.912 159.128C68.888 159.213 67.7787 159.256 66.584 159.256C65.3893 159.256 64.2373 159.213 63.128 159.128C62.104 159.128 61.4213 159.085 61.08 159V132.632L37.656 110.232ZM108.824 132.632L84.376 108.184C85.144 102.637 85.8693 97.2613 86.552 92.056C87.32 86.8507 88.1733 81.688 89.112 76.568C90.0507 71.448 91.0747 66.328 92.184 61.208C93.3787 56.0027 94.8293 50.6693 96.536 45.208C96.6213 45.0373 96.7493 44.568 96.92 43.8C97.0907 42.9467 97.2613 42.0507 97.432 41.112C97.6027 40.1733 97.7733 39.32 97.944 38.552C98.2 37.784 98.4133 37.3147 98.584 37.144C100.035 35.6933 101.571 35.224 103.192 35.736C104.899 36.248 106.563 37.4 108.184 39.192C109.891 40.984 111.512 43.16 113.048 45.72C114.584 48.28 115.949 50.8827 117.144 53.528C118.339 56.088 119.277 58.4773 119.96 60.696C120.643 62.9147 120.984 64.536 120.984 65.56V159H108.824V132.632ZM143.887 154.904C143.972 154.904 144.228 154.819 144.655 154.648C145.167 154.477 145.722 154.307 146.319 154.136C147.002 153.88 147.684 153.667 148.367 153.496C149.05 153.24 149.604 153.027 150.031 152.856C151.823 152.344 154.042 151.405 156.687 150.04C159.332 148.675 161.722 147.011 163.855 145.048C166.074 143.085 167.695 140.867 168.719 138.392C169.828 135.917 169.7 133.315 168.335 130.584L145.935 85.912L141.839 69.656C140.9 69.144 139.535 68.2907 137.743 67.096C136.036 65.9013 134.714 64.7067 133.775 63.512C133.946 63.3413 134.287 63 134.799 62.488C135.311 61.976 135.652 61.6347 135.823 61.464C137.871 60.2693 139.663 59.2027 141.199 58.264C142.735 57.3253 144.228 56.6 145.679 56.088C147.215 55.4907 148.794 55.1493 150.415 55.064C152.036 54.8933 153.956 54.9787 156.175 55.32C157.967 55.6613 159.46 56.4293 160.655 57.624C161.935 58.7333 163.087 60.0133 164.111 61.464C165.135 62.9147 166.116 64.408 167.055 65.944C167.994 67.3947 169.103 68.632 170.383 69.656C173.54 72.216 176.442 74.4773 179.087 76.44C181.732 78.4027 184.207 80.3227 186.511 82.2C188.9 84.0773 191.247 86.0827 193.551 88.216C195.855 90.3493 198.287 92.952 200.847 96.024C201.103 96.3653 201.7 97.2613 202.639 98.712C203.663 100.077 204.73 101.571 205.839 103.192C207.034 104.813 208.1 106.349 209.039 107.8C210.063 109.165 210.703 109.976 210.959 110.232C211.471 110.829 212.367 111.811 213.647 113.176C215.012 114.541 216.463 115.992 217.999 117.528C219.535 118.979 220.986 120.387 222.351 121.752C223.716 123.032 224.655 123.928 225.167 124.44C226.02 125.635 225.85 126.829 224.655 128.024C223.546 129.219 222.052 130.285 220.175 131.224C218.298 132.163 216.42 132.973 214.543 133.656C212.751 134.253 211.556 134.595 210.959 134.68C210.191 134.68 208.826 134.723 206.863 134.808C204.986 134.808 202.938 134.808 200.719 134.808C198.586 134.808 196.538 134.808 194.575 134.808C192.698 134.723 191.375 134.68 190.607 134.68C189.668 138.861 188.559 142.872 187.279 146.712C186.084 150.552 185.188 154.648 184.591 159H139.919C140.004 158.829 140.218 158.531 140.559 158.104C140.9 157.677 141.284 157.251 141.711 156.824C142.138 156.397 142.564 156.013 142.991 155.672C143.418 155.245 143.716 154.989 143.887 154.904ZM170.383 148.888C170.212 149.059 170.127 149.4 170.127 149.912C170.127 150.339 170.212 150.68 170.383 150.936C173.199 151.619 175.546 151.149 177.423 149.528C179.386 147.821 180.794 145.773 181.647 143.384C182.5 140.995 182.671 138.691 182.159 136.472C181.732 134.253 180.495 132.973 178.447 132.632C178.106 133.229 177.508 134.296 176.655 135.832C175.887 137.368 175.076 139.032 174.223 140.824C173.37 142.531 172.559 144.152 171.791 145.688C171.108 147.224 170.639 148.291 170.383 148.888ZM188.687 130.584C188.175 130.584 187.791 130.797 187.535 131.224C187.279 131.651 187.151 132.12 187.151 132.632C187.151 133.144 187.279 133.613 187.535 134.04C187.791 134.467 188.175 134.68 188.687 134.68C189.199 134.68 189.54 134.467 189.711 134.04C189.967 133.613 190.095 133.144 190.095 132.632C190.095 132.12 189.967 131.651 189.711 131.224C189.54 130.797 189.199 130.584 188.687 130.584ZM176.399 128.536C175.887 128.536 175.503 128.749 175.247 129.176C174.991 129.603 174.863 130.072 174.863 130.584C174.863 131.096 174.991 131.565 175.247 131.992C175.503 132.419 175.887 132.632 176.399 132.632C176.911 132.632 177.295 132.419 177.551 131.992C177.807 131.565 177.935 131.096 177.935 130.584C177.935 130.072 177.807 129.603 177.551 129.176C177.295 128.749 176.911 128.536 176.399 128.536ZM141.839 61.464C141.327 61.464 140.943 61.6773 140.687 62.104C140.516 62.5307 140.431 63 140.431 63.512C140.431 64.024 140.516 64.4933 140.687 64.92C140.943 65.3467 141.327 65.56 141.839 65.56C142.351 65.56 142.735 65.3467 142.991 64.92C143.247 64.4933 143.375 64.024 143.375 63.512C143.375 63 143.247 62.5307 142.991 62.104C142.735 61.6773 142.351 61.464 141.839 61.464ZM139.919 59.416C139.407 59.416 139.023 59.6293 138.767 60.056C138.511 60.4827 138.383 60.952 138.383 61.464C138.383 61.976 138.511 62.4453 138.767 62.872C139.023 63.2987 139.407 63.512 139.919 63.512C140.431 63.512 140.772 63.2987 140.943 62.872C141.199 62.4453 141.327 61.976 141.327 61.464C141.327 60.952 141.199 60.4827 140.943 60.056C140.772 59.6293 140.431 59.416 139.919 59.416ZM239.531 109.464C239.446 109.379 239.36 108.611 239.275 107.16C239.275 105.709 239.275 104.003 239.275 102.04C239.275 99.992 239.275 97.944 239.275 95.896C239.36 93.848 239.446 92.184 239.531 90.904C239.616 89.9653 239.83 88.2587 240.171 85.784C240.598 83.224 241.024 80.536 241.451 77.72C241.878 74.8187 242.304 72.088 242.731 69.528C243.158 66.968 243.456 65.1333 243.627 64.024C243.712 63.8533 243.926 63.256 244.267 62.232C244.608 61.208 244.992 60.056 245.419 58.776C245.846 57.4107 246.272 56.088 246.699 54.808C247.211 53.4427 247.595 52.376 247.851 51.608C248.278 50.4133 248.832 48.8773 249.515 47C250.198 45.1227 250.88 43.288 251.563 41.496C252.331 39.448 253.142 37.3147 253.995 35.096H258.091C258.176 35.096 258.646 35.5227 259.499 36.376C260.352 37.144 261.334 38.0827 262.443 39.192C263.552 40.216 264.662 41.3253 265.771 42.52C266.88 43.7147 267.776 44.696 268.459 45.464C269.91 47.1707 271.147 49.3467 272.171 51.992C273.195 54.6373 274.048 57.4533 274.731 60.44C275.414 63.3413 275.883 66.2427 276.139 69.144C276.48 71.96 276.651 74.392 276.651 76.44V156.952C276.651 157.293 276.395 157.72 275.883 158.232C275.371 158.744 274.944 159 274.603 159C274.176 159.085 273.408 159.128 272.299 159.128C271.275 159.213 270.123 159.256 268.843 159.256C267.648 159.256 266.496 159.213 265.387 159.128C264.363 159.128 263.638 159.085 263.211 159V132.12L239.531 109.464ZM296.824 154.904C299.811 151.917 303.267 150.125 307.192 149.528C311.203 148.845 315.341 148.547 319.608 148.632C321.827 148.035 323.235 146.968 323.832 145.432C324.429 143.896 324.6 142.232 324.344 140.44C324.088 138.563 323.619 136.685 322.936 134.808C322.339 132.931 321.912 131.352 321.656 130.072C321.4 129.133 321.059 127.427 320.632 124.952C320.291 122.392 319.864 119.704 319.352 116.888C318.925 113.987 318.541 111.256 318.2 108.696C317.859 106.136 317.645 104.344 317.56 103.32C315.256 100.931 312.995 98.2427 310.776 95.256C308.643 92.184 306.979 89.0267 305.784 85.784C304.675 82.5413 304.291 79.256 304.632 75.928C304.973 72.5147 306.509 69.2293 309.24 66.072C308.301 63.6827 306.851 62.2747 304.888 61.848C303.011 61.336 301.048 61.2933 299 61.72C297.037 62.1467 295.245 62.7013 293.624 63.384C292.003 64.0667 291.021 64.28 290.68 64.024C289.827 61.976 290.253 59.8853 291.96 57.752C293.667 55.5333 296.013 53.4427 299 51.48C301.987 49.432 305.357 47.5547 309.112 45.848C312.867 44.056 316.408 42.52 319.736 41.24C323.149 39.8747 326.008 38.8507 328.312 38.168C330.616 37.4 331.853 37.0587 332.024 37.144V39.32C331.939 40.088 331.811 41.4533 331.64 43.416C331.469 45.3787 331.256 47.4693 331 49.688C330.829 51.8213 330.616 53.8693 330.36 55.832C330.104 57.7947 329.933 59.16 329.848 59.928C330.531 62.5733 331.981 65.0907 334.2 67.48C336.504 69.8693 339.021 72.1733 341.752 74.392C344.568 76.5253 347.341 78.616 350.072 80.664C352.888 82.712 355.107 84.7173 356.728 86.68C359.715 90.1787 362.915 94.1893 366.328 98.712C369.741 103.235 373.112 107.885 376.44 112.664C379.768 117.357 382.925 121.965 385.912 126.488C388.899 131.011 391.544 134.979 393.848 138.392C394.019 138.477 394.104 138.819 394.104 139.416C394.104 139.928 394.019 140.269 393.848 140.44C393.763 140.525 393.507 140.781 393.08 141.208C392.653 141.549 392.184 141.976 391.672 142.488C391.16 142.915 390.691 143.341 390.264 143.768C389.923 144.109 389.752 144.365 389.752 144.536C389.752 144.792 389.923 145.219 390.264 145.816C390.691 146.413 391.16 147.053 391.672 147.736C392.184 148.419 392.653 149.059 393.08 149.656C393.507 150.253 393.763 150.595 393.848 150.68C394.019 150.936 394.104 151.32 394.104 151.832C394.104 152.344 394.019 152.685 393.848 152.856C393.677 153.112 393.379 153.496 392.952 154.008C392.525 154.435 392.099 154.904 391.672 155.416C391.245 155.843 390.819 156.227 390.392 156.568C390.051 156.824 389.837 156.952 389.752 156.952H373.24C373.155 156.952 372.813 156.696 372.216 156.184C371.704 155.672 371.363 155.245 371.192 154.904C370.168 153.539 369.187 152.003 368.248 150.296C367.395 148.504 366.499 146.755 365.56 145.048C364.621 143.256 363.597 141.592 362.488 140.056C361.464 138.52 360.227 137.283 358.776 136.344C359.203 137.539 359.288 138.605 359.032 139.544C358.776 140.397 358.307 141.165 357.624 141.848C357.027 142.445 356.259 142.957 355.32 143.384C354.467 143.811 353.571 144.195 352.632 144.536C352.632 145.048 352.632 145.901 352.632 147.096C352.717 148.205 352.76 149.443 352.76 150.808C352.76 152.088 352.717 153.325 352.632 154.52C352.632 155.629 352.632 156.44 352.632 156.952C352.632 157.293 352.376 157.72 351.864 158.232C351.352 158.744 350.925 159 350.584 159C347.768 157.891 345.549 157.251 343.928 157.08C342.392 156.824 340.899 156.824 339.448 157.08C338.083 157.336 336.547 157.677 334.84 158.104C333.133 158.531 330.787 158.829 327.8 159C327.032 159 325.752 159 323.96 159C322.253 159.085 320.291 159.128 318.072 159.128C315.939 159.213 313.677 159.256 311.288 159.256C308.899 159.256 306.595 159.213 304.376 159.128C302.243 159.128 300.323 159.128 298.616 159.128C296.909 159.128 295.629 159.085 294.776 159C294.776 158.829 294.861 158.573 295.032 158.232C295.203 157.805 295.416 157.379 295.672 156.952C295.928 156.44 296.141 156.013 296.312 155.672C296.568 155.245 296.739 154.989 296.824 154.904ZM373.24 148.632C373.496 148.973 373.837 149.4 374.264 149.912C374.691 150.339 375.117 150.808 375.544 151.32C375.971 151.747 376.355 152.131 376.696 152.472C377.037 152.728 377.251 152.856 377.336 152.856C377.848 152.941 378.659 153.027 379.768 153.112C380.963 153.112 382.2 153.112 383.48 153.112C384.845 153.112 386.125 153.112 387.32 153.112C388.515 153.027 389.325 152.941 389.752 152.856V150.68C389.752 150.509 389.24 149.869 388.216 148.76C387.192 147.565 385.827 146.115 384.12 144.408C382.499 142.701 380.621 140.824 378.488 138.776C376.44 136.643 374.349 134.552 372.216 132.504C370.083 130.371 367.992 128.408 365.944 126.616C363.981 124.739 362.275 123.16 360.824 121.88C360.397 121.539 359.501 120.813 358.136 119.704C356.856 118.595 355.277 117.357 353.4 115.992C351.608 114.541 349.645 113.048 347.512 111.512C345.464 109.891 343.501 108.397 341.624 107.032C339.832 105.581 338.211 104.344 336.76 103.32C335.395 102.211 334.499 101.485 334.072 101.144C333.816 100.973 333.389 100.589 332.792 99.992C332.195 99.3947 331.555 98.7973 330.872 98.2C330.189 97.5173 329.549 96.8773 328.952 96.28C328.44 95.6827 328.056 95.256 327.8 95C325.581 92.3547 324.088 89.496 323.32 86.424C322.552 83.2667 322.211 80.4507 322.296 77.976C322.381 75.5013 322.765 73.6667 323.448 72.472C324.216 71.2773 324.984 71.2347 325.752 72.344V84.632C326.691 81.3893 328.44 78.9147 331 77.208C333.56 75.416 336.632 75.16 340.216 76.44L327.8 64.024V43.416H325.752C326.349 47.1707 326.051 50.456 324.856 53.272C323.747 56.0027 322.253 58.5627 320.376 60.952C318.499 63.256 316.579 65.4747 314.616 67.608C312.653 69.656 311.16 71.9173 310.136 74.392C309.197 76.7813 309.027 79.4693 309.624 82.456C310.221 85.4427 312.184 88.9413 315.512 92.952C315.853 93.3787 316.749 94.4027 318.2 96.024C319.651 97.56 321.187 99.2667 322.808 101.144C324.429 102.936 325.923 104.643 327.288 106.264C328.739 107.885 329.592 108.952 329.848 109.464C330.189 109.891 330.829 111.128 331.768 113.176C332.792 115.139 333.859 117.315 334.968 119.704C336.163 122.008 337.229 124.184 338.168 126.232C339.192 128.28 339.875 129.56 340.216 130.072C340.899 131.267 341.837 132.333 343.032 133.272C344.227 134.211 345.507 135.107 346.872 135.96C348.323 136.728 349.731 137.496 351.096 138.264C352.461 138.947 353.656 139.672 354.68 140.44V138.392C354.595 138.136 354.424 137.624 354.168 136.856C353.997 136.003 353.784 135.149 353.528 134.296C353.357 133.357 353.144 132.504 352.888 131.736C352.717 130.883 352.632 130.328 352.632 130.072V128.024C353.912 126.744 355.235 126.275 356.6 126.616C357.965 126.872 359.288 127.64 360.568 128.92C361.933 130.2 363.213 131.821 364.408 133.784C365.688 135.661 366.883 137.581 367.992 139.544C369.101 141.507 370.083 143.341 370.936 145.048C371.875 146.669 372.643 147.864 373.24 148.632ZM336.12 142.488C335.949 142.829 335.864 143.512 335.864 144.536C335.864 145.56 335.949 146.243 336.12 146.584C337.4 147.267 338.339 147.267 338.936 146.584C339.533 145.901 339.917 145.005 340.088 143.896C340.344 142.701 340.429 141.549 340.344 140.44C340.344 139.331 340.301 138.648 340.216 138.392C340.045 138.477 339.747 138.733 339.32 139.16C338.893 139.501 338.467 139.885 338.04 140.312C337.613 140.739 337.187 141.165 336.76 141.592C336.419 142.019 336.205 142.317 336.12 142.488ZM389.752 136.344C389.24 136.344 388.856 136.557 388.6 136.984C388.344 137.411 388.216 137.88 388.216 138.392C388.216 138.904 388.344 139.373 388.6 139.8C388.856 140.227 389.24 140.44 389.752 140.44C390.264 140.44 390.648 140.227 390.904 139.8C391.16 139.373 391.288 138.904 391.288 138.392C391.288 137.88 391.16 137.411 390.904 136.984C390.648 136.557 390.264 136.344 389.752 136.344ZM325.752 128.024C325.837 128.28 326.221 128.792 326.904 129.56C327.587 130.243 328.355 131.053 329.208 131.992C330.147 132.845 331.043 133.699 331.896 134.552C332.835 135.32 333.56 135.917 334.072 136.344C334.157 136.429 334.456 136.472 334.968 136.472C335.565 136.472 335.949 136.429 336.12 136.344C336.461 135.235 336.205 133.485 335.352 131.096C334.499 128.621 333.389 126.061 332.024 123.416C330.659 120.771 329.208 118.339 327.672 116.12C326.136 113.816 324.813 112.28 323.704 111.512V115.608C323.789 116.461 323.917 117.571 324.088 118.936C324.344 120.301 324.557 121.667 324.728 123.032C324.984 124.312 325.197 125.464 325.368 126.488C325.624 127.427 325.752 127.939 325.752 128.024ZM385.656 134.168C385.827 134.424 386.168 134.808 386.68 135.32C387.192 135.832 387.533 136.173 387.704 136.344C388.131 135.491 388.045 134.68 387.448 133.912C386.936 133.059 386.339 132.461 385.656 132.12C385.485 132.291 385.4 132.675 385.4 133.272C385.4 133.784 385.485 134.083 385.656 134.168ZM356.728 132.12C356.387 132.12 356.131 132.248 355.96 132.504C355.789 132.675 355.704 132.931 355.704 133.272C355.704 133.528 355.789 133.784 355.96 134.04C356.131 134.211 356.387 134.253 356.728 134.168C357.411 134.083 357.752 133.784 357.752 133.272C357.752 132.675 357.411 132.291 356.728 132.12ZM383.608 128.024C383.096 128.024 382.712 128.237 382.456 128.664C382.2 129.091 382.072 129.56 382.072 130.072C382.072 130.584 382.2 131.053 382.456 131.48C382.712 131.907 383.096 132.12 383.608 132.12C384.12 132.12 384.504 131.907 384.76 131.48C385.016 131.053 385.144 130.584 385.144 130.072C385.144 129.56 385.016 129.091 384.76 128.664C384.504 128.237 384.12 128.024 383.608 128.024ZM381.56 125.976C381.048 125.976 380.664 126.189 380.408 126.616C380.152 127.043 380.024 127.512 380.024 128.024C380.024 128.536 380.152 129.005 380.408 129.432C380.664 129.859 381.048 130.072 381.56 130.072C382.072 130.072 382.456 129.859 382.712 129.432C382.968 129.005 383.096 128.536 383.096 128.024C383.096 127.512 382.968 127.043 382.712 126.616C382.456 126.189 382.072 125.976 381.56 125.976ZM379.512 123.928C379.171 123.843 378.915 123.928 378.744 124.184C378.573 124.44 378.488 124.696 378.488 124.952C378.488 125.208 378.573 125.464 378.744 125.72C378.915 125.976 379.171 126.061 379.512 125.976C380.109 125.805 380.408 125.464 380.408 124.952C380.408 124.355 380.109 124.013 379.512 123.928ZM377.336 119.832C376.824 119.832 376.44 120.045 376.184 120.472C375.928 120.899 375.8 121.368 375.8 121.88C375.8 122.392 375.928 122.861 376.184 123.288C376.44 123.715 376.824 123.928 377.336 123.928C377.848 123.928 378.232 123.715 378.488 123.288C378.829 122.861 379 122.392 379 121.88C379 121.368 378.829 120.899 378.488 120.472C378.232 120.045 377.848 119.832 377.336 119.832ZM375.288 117.656C374.691 117.571 374.392 117.955 374.392 118.808C374.392 119.576 374.691 119.917 375.288 119.832C375.971 119.661 376.312 119.32 376.312 118.808C376.312 118.211 375.971 117.827 375.288 117.656ZM373.24 113.56C372.728 113.56 372.344 113.773 372.088 114.2C371.832 114.627 371.704 115.096 371.704 115.608C371.704 116.12 371.832 116.589 372.088 117.016C372.344 117.443 372.728 117.656 373.24 117.656C373.752 117.656 374.136 117.443 374.392 117.016C374.648 116.589 374.776 116.12 374.776 115.608C374.776 115.096 374.648 114.627 374.392 114.2C374.136 113.773 373.752 113.56 373.24 113.56ZM371.192 111.512C370.68 111.512 370.296 111.725 370.04 112.152C369.784 112.579 369.656 113.048 369.656 113.56C369.656 114.072 369.784 114.541 370.04 114.968C370.296 115.395 370.68 115.608 371.192 115.608C371.704 115.608 372.088 115.395 372.344 114.968C372.6 114.541 372.728 114.072 372.728 113.56C372.728 113.048 372.6 112.579 372.344 112.152C372.088 111.725 371.704 111.512 371.192 111.512ZM369.144 109.464C368.803 109.379 368.547 109.464 368.376 109.72C368.205 109.976 368.12 110.232 368.12 110.488C368.12 110.744 368.205 111 368.376 111.256C368.547 111.512 368.803 111.597 369.144 111.512C369.827 111.341 370.168 111 370.168 110.488C370.168 109.976 369.827 109.635 369.144 109.464ZM367.096 105.368C366.755 105.283 366.499 105.368 366.328 105.624C366.157 105.795 366.072 106.051 366.072 106.392C366.072 106.648 366.157 106.904 366.328 107.16C366.499 107.331 366.755 107.416 367.096 107.416C367.693 107.245 367.992 106.904 367.992 106.392C367.992 105.795 367.693 105.453 367.096 105.368ZM365.048 101.144C364.536 101.144 364.152 101.357 363.896 101.784C363.64 102.211 363.512 102.723 363.512 103.32C363.512 103.832 363.64 104.301 363.896 104.728C364.152 105.155 364.536 105.368 365.048 105.368C365.56 105.368 365.944 105.155 366.2 104.728C366.456 104.301 366.584 103.832 366.584 103.32C366.584 102.723 366.456 102.211 366.2 101.784C365.944 101.357 365.56 101.144 365.048 101.144ZM363 99.096C362.488 99.096 362.061 99.3093 361.72 99.736C361.464 100.163 361.336 100.675 361.336 101.272C361.336 101.784 361.464 102.253 361.72 102.68C362.061 103.107 362.488 103.32 363 103.32C363.512 103.32 363.896 103.107 364.152 102.68C364.408 102.253 364.536 101.784 364.536 101.272C364.536 100.675 364.408 100.163 364.152 99.736C363.896 99.3093 363.512 99.096 363 99.096ZM358.776 97.048C358.947 97.2187 359.288 97.6027 359.8 98.2C360.312 98.712 360.653 99.0107 360.824 99.096C361.251 98.2427 361.208 97.432 360.696 96.664C360.184 95.896 359.544 95.3413 358.776 95C358.691 95.1707 358.648 95.5547 358.648 96.152C358.648 96.664 358.691 96.9627 358.776 97.048ZM356.728 90.904C356.216 90.904 355.832 91.1173 355.576 91.544C355.32 91.9707 355.192 92.44 355.192 92.952C355.192 93.464 355.32 93.9333 355.576 94.36C355.832 94.7867 356.216 95 356.728 95C357.24 95 357.624 94.7867 357.88 94.36C358.136 93.9333 358.264 93.464 358.264 92.952C358.264 92.44 358.136 91.9707 357.88 91.544C357.624 91.1173 357.24 90.904 356.728 90.904ZM354.68 88.856C354.168 88.856 353.784 89.0693 353.528 89.496C353.272 89.9227 353.144 90.392 353.144 90.904C353.144 91.416 353.272 91.8853 353.528 92.312C353.784 92.7387 354.168 92.952 354.68 92.952C355.192 92.952 355.576 92.7387 355.832 92.312C356.088 91.8853 356.216 91.416 356.216 90.904C356.216 90.392 356.088 89.9227 355.832 89.496C355.576 89.0693 355.192 88.856 354.68 88.856ZM346.36 84.632C346.616 84.8027 347.043 85.0587 347.64 85.4C348.323 85.7413 348.963 86.168 349.56 86.68C350.243 87.1067 350.84 87.5333 351.352 87.96C351.949 88.3013 352.376 88.6 352.632 88.856C352.717 88.6 352.76 88.2587 352.76 87.832C352.76 87.32 352.717 86.936 352.632 86.68C350.755 84.0347 348.749 82.456 346.616 81.944C344.568 81.3467 341.752 81.56 338.168 82.584C338.509 82.6693 339.064 82.7973 339.832 82.968C340.6 83.1387 341.411 83.352 342.264 83.608C343.203 83.7787 344.056 83.992 344.824 84.248C345.592 84.4187 346.104 84.5467 346.36 84.632ZM342.264 76.44C341.752 76.44 341.368 76.6533 341.112 77.08C340.856 77.5067 340.728 77.976 340.728 78.488C340.728 79 340.856 79.4693 341.112 79.896C341.368 80.3227 341.752 80.536 342.264 80.536C342.776 80.536 343.16 80.3227 343.416 79.896C343.672 79.4693 343.8 79 343.8 78.488C343.8 77.976 343.672 77.5067 343.416 77.08C343.16 76.6533 342.776 76.44 342.264 76.44Z" fill="url(#paint0_linear_1_2)"/>
<defs>
<linearGradient id="paint0_linear_1_2" x1="220.5" y1="28" x2="220.5" y2="216" gradientUnits="userSpaceOnUse">
<stop stop-color="#CDCDCD"/>
<stop offset="1" stop-color="#434343"/>
</linearGradient>
</defs>
</svg>
