<svg xmlns="http://www.w3.org/2000/svg" width="126" height="161" fill="none" viewBox="0 0 126 161"><g clip-path="url(#clip0_1_2)"><path fill="url(#paint0_linear_1_2)" d="M21.656 92.232C21.5707 92.1467 21.4853 91.4213 21.4 90.056C21.4 88.6053 21.4 86.8987 21.4 84.936C21.4 82.9733 21.4 80.968 21.4 78.92C21.4853 76.872 21.5707 75.208 21.656 73.928C21.912 68.9787 22.4667 64.2 23.32 59.592C24.1733 54.984 25.24 50.4613 26.52 46.024C27.8 41.5013 29.208 37.0213 30.744 32.584C32.3653 28.1467 34.072 23.6667 35.864 19.144C38.7653 18.376 41.3253 18.7173 43.544 20.168C45.7627 21.6187 47.6827 23.6667 49.304 26.312C50.9253 28.9573 52.2907 32.0293 53.4 35.528C54.5947 39.0267 55.5333 42.4827 56.216 45.896C56.8987 49.3093 57.368 52.4667 57.624 55.368C57.9653 58.184 58.1787 60.3173 58.264 61.768C58.264 63.6453 58.264 66.632 58.264 70.728C58.3493 74.7387 58.392 79.304 58.392 84.424C58.392 89.4587 58.392 94.792 58.392 100.424C58.392 105.971 58.392 111.304 58.392 116.424C58.392 121.459 58.3493 126.024 58.264 130.12C58.264 134.131 58.264 137.075 58.264 138.952C58.264 139.293 58.008 139.72 57.496 140.232C56.984 140.744 56.5573 141 56.216 141C55.7893 141.085 55.0213 141.128 53.912 141.128C52.888 141.213 51.7787 141.256 50.584 141.256C49.3893 141.256 48.2373 141.213 47.128 141.128C46.104 141.128 45.4213 141.085 45.08 141V114.632L21.656 92.232ZM92.824 114.632L68.376 90.184C69.144 84.6373 69.8693 79.2613 70.552 74.056C71.32 68.8507 72.1733 63.688 73.112 58.568C74.0507 53.448 75.0747 48.328 76.184 43.208C77.3787 38.0027 78.8293 32.6693 80.536 27.208C80.6213 27.0373 80.7493 26.568 80.92 25.8C81.0907 24.9467 81.2613 24.0507 81.432 23.112C81.6027 22.1733 81.7733 21.32 81.944 20.552C82.2 19.784 82.4133 19.3147 82.584 19.144C84.0347 17.6933 85.5707 17.224 87.192 17.736C88.8987 18.248 90.5627 19.4 92.184 21.192C93.8907 22.984 95.512 25.16 97.048 27.72C98.584 30.28 99.9493 32.8827 101.144 35.528C102.339 38.088 103.277 40.4773 103.96 42.696C104.643 44.9147 104.984 46.536 104.984 47.56V141H92.824V114.632Z"/></g><defs><linearGradient id="paint0_linear_1_2" x1="204.5" x2="204.5" y1="10" y2="198" gradientUnits="userSpaceOnUse"><stop stop-color="#CDCDCD"/><stop offset="1" stop-color="#434343"/></linearGradient><clipPath id="clip0_1_2"><rect width="126" height="161" fill="#fff"/></clipPath></defs></svg>